<svg height="511pt" viewBox="-13 0 511 511.99996" width="511pt" xmlns="http://www.w3.org/2000/svg"><path d="m373.621094 255.128906c38.699218-35.570312 180.304687-202.976562 74.226562-248.832031-106.082031-45.855469-131.007812 171.988281-130.40625 224.546875zm0 0" fill="#ffaacb"/><path d="m113.402344 255.128906c-38.695313-35.570312-180.304688-202.976562-74.226563-248.832031 106.082031-45.855469 131.007813 171.988281 130.40625 224.546875zm0 0" fill="#ffaacb"/><path d="m88.320312 228.921875c10.039063 11.421875 18.882813 20.507813 25.082032 26.207031l56.179687-24.289062c.128907-11.328125-.929687-30.339844-3.726562-52.734375-24.707031 9.214843-47.433594 22.875-66.96875 40.535156-3.675781 3.324219-7.199219 6.753906-10.566407 10.28125zm0 0" fill="#ff82b3"/><path d="m388.136719 218.640625c-19.535157-17.660156-42.261719-31.320313-66.964844-40.535156-2.800781 22.394531-3.859375 41.40625-3.730469 52.734375l56.179688 24.289062c6.199218-5.699218 15.042968-14.785156 25.082031-26.207031-3.367187-3.527344-6.890625-6.957031-10.566406-10.28125zm0 0" fill="#ff82b3"/><path d="m343.265625 242.003906c1.109375-21.027344 4.109375-49.058594 10.175781-76.457031 14.277344-64.480469 34.816406-81.183594 40.773438-84.765625 12.980468-7.808594 32.914062.816406 36.121094 15.613281 1.46875 6.792969 3.375 33.195313-33.816407 87.773438-15.800781 23.191406-34.164062 44.582031-48.722656 59.796875zm0 0" fill="#ebebeb"/><path d="m143.757812 242.003906c-1.109374-21.027344-4.109374-49.058594-10.175781-76.457031-14.277343-64.480469-34.816406-81.183594-40.773437-84.765625-12.980469-7.808594-32.914063.816406-36.117188 15.613281-1.472656 6.792969-3.378906 33.195313 33.8125 87.773438 15.800782 23.191406 34.167969 44.582031 48.722656 59.796875zm0 0" fill="#ebebeb"/><path d="m139.226562 243.964844 4.53125-1.960938c-.769531-14.585937-2.453124-32.550781-5.4375-51.332031-10.144531 5.542969-19.8125 11.917969-28.902343 19.085937 10.390625 13.066407 20.824219 24.816407 29.808593 34.207032zm0 0" fill="#d5d4da"/><path d="m348.703125 190.671875c-2.984375 18.78125-4.667969 36.742187-5.4375 51.332031l4.53125 1.960938c8.984375-9.394532 19.417969-21.140625 29.804687-34.207032-9.089843-7.167968-18.753906-13.542968-28.898437-19.085937zm0 0" fill="#d5d4da"/><path d="m418.730469 353.582031c0-87.488281-78.449219-158.414062-175.21875-158.414062s-175.21875 70.925781-175.21875 158.414062c0 87.492188 78.449219 158.417969 175.21875 158.417969s175.21875-70.925781 175.21875-158.417969zm0 0" fill="#ffaacb"/><path d="m269.753906 346.941406c16.859375 9.269532 28.277344 27.199219 28.277344 47.792969 0 30.109375-24.410156 54.519531-54.519531 54.519531s-54.519531-24.410156-54.519531-54.519531c0-20.59375 11.417968-38.523437 28.277343-47.792969zm0 0" fill="#ebebeb"/><path d="m325.367188 355.855469c-4.265626 0-7.726563-3.457031-7.726563-7.726563v-15.914062c0-4.269532 3.460937-7.726563 7.726563-7.726563 4.265624 0 7.726562 3.457031 7.726562 7.726563v15.914062c0 4.269532-3.460938 7.726563-7.726562 7.726563zm0 0" fill="#4b5562"/><path d="m161.65625 355.855469c-4.265625 0-7.726562-3.457031-7.726562-7.726563v-15.914062c0-4.269532 3.460937-7.726563 7.726562-7.726563s7.726562 3.457031 7.726562 7.726563v15.914062c0 4.269532-3.460937 7.726563-7.726562 7.726563zm0 0" fill="#4b5562"/><path d="m162.207031 379.25h-21.675781c-4.265625 0-7.726562-3.457031-7.726562-7.726562 0-4.265626 3.460937-7.726563 7.726562-7.726563h21.675781c4.269531 0 7.726563 3.460937 7.726563 7.726563 0 4.269531-3.457032 7.726562-7.726563 7.726562zm0 0" fill="#ff82b3"/><path d="m346.492188 379.25h-21.675782c-4.269531 0-7.726562-3.457031-7.726562-7.726562 0-4.265626 3.457031-7.726563 7.726562-7.726563h21.675782c4.269531 0 7.726562 3.460937 7.726562 7.726563 0 4.269531-3.457031 7.726562-7.726562 7.726562zm0 0" fill="#ff82b3"/><path d="m265.800781 381.859375c-8.03125 0-14.5625-6.53125-14.5625-14.558594 0-4.269531-3.460937-7.726562-7.726562-7.726562s-7.726563 3.457031-7.726563 7.726562c0 8.027344-6.53125 14.558594-14.5625 14.558594-4.265625 0-7.726562 3.460937-7.726562 7.726563 0 4.269531 3.460937 7.726562 7.726562 7.726562 8.835938 0 16.792969-3.839844 22.289063-9.933594 5.496093 6.09375 13.453125 9.933594 22.289062 9.933594 4.265625 0 7.726563-3.457031 7.726563-7.726562 0-4.265626-3.460938-7.726563-7.726563-7.726563zm0 0" fill="#4b5562"/><path d="m269.753906 346.941406c-2.992187 11.707032-13.609375 20.359375-26.242187 20.359375-12.632813 0-23.246094-8.652343-26.242188-20.359375 7.777344-4.289062 16.726563-6.726562 26.242188-6.726562s18.464843 2.4375 26.242187 6.726562zm0 0" fill="#ff82b3"/><path d="m137.824219 252.253906s-25.15625 84.554688-64.285157 21.367188c-39.128906-63.191406 47.777344-48.027344 47.777344-48.027344zm0 0" fill="#34b5e1"/><path d="m160.492188 238.21875s86.910156 15.164062 47.78125-48.027344c-39.128907-63.1875-64.289063 21.367188-64.289063 21.367188zm0 0" fill="#34b5e1"/><path d="m130.949219 214.417969-1.261719.78125c-9.441406 5.847656-12.355469 18.242187-6.507812 27.683593 5.847656 9.445313 18.242187 12.359376 27.683593 6.511719l1.261719-.78125c9.441406-5.847656 12.355469-18.242187 6.507812-27.683593-5.847656-9.445313-18.242187-12.359376-27.683593-6.511719zm0 0" fill="#5bd6fd"/></svg>