<svg id="Capa_1" enable-background="new 0 0 494.326 494.326" height="512" viewBox="0 0 494.326 494.326" width="512" xmlns="http://www.w3.org/2000/svg"><g><path d="m392.604 354.42v48.546c0 10.828 8.778 19.606 19.606 19.606 10.828 0 19.606-8.778 19.606-19.606v-112.495h-39.212z" fill="#fdaee0"/><path d="m413.643 403.843v-48.546-63.949h18.173v-.876h-39.212v63.949 48.546c0 10.828 8.778 19.605 19.606 19.605 3.585 0 6.958-.969 9.85-2.65-5.07-3.544-8.417-9.424-8.417-16.079z" fill="#fd94d3"/><path d="m141.799 388.004-14.962 27.698c-1.927 3.568-2.937 7.56-2.937 11.615v47.977c0 10.511-8.521 19.032-19.032 19.032-10.511 0-19.032-8.521-19.032-19.032v-139.935-97.963l69.12 22.193z" fill="#fdaee0"/><path d="m107.546 479.072v-139.934-94.771l-21.71-6.971v97.963 139.935c0 10.511 8.521 19.032 19.032 19.032 2.935 0 5.724-.669 8.206-1.855-3.402-3.438-5.528-8.179-5.528-13.399z" fill="#fd94d3"/><g><path d="m247.398 18.38c109.83 0 198.87 89.04 198.87 198.87s-89.04 198.87-198.87 198.87-198.87-89.04-198.87-198.87 89.04-198.87 198.87-198.87zm118.87 198.87c0-65.55-53.32-118.87-118.87-118.87-65.54 0-118.87 53.32-118.87 118.87 0 65.54 53.33 118.87 118.87 118.87 65.55 0 118.87-53.33 118.87-118.87z" fill="#fcd89f"/></g><g><path d="m97.291 213.893c0-96.822 69.203-177.473 160.84-195.222-3.554-.189-7.132-.291-10.733-.291-109.83 0-198.87 89.04-198.87 198.87s89.04 198.87 198.87 198.87c13.008 0 25.718-1.248 38.029-3.632-104.838-5.577-188.136-92.367-188.136-198.595z" fill="#fbce85"/></g><g id="XMLID_433_"><g><path d="m247.398 98.38c65.55 0 118.87 53.32 118.87 118.87 0 65.54-53.32 118.87-118.87 118.87-65.54 0-118.87-53.33-118.87-118.87 0-65.55 53.33-118.87 118.87-118.87zm79.87 118.87c0-44.04-35.83-79.87-79.87-79.87s-79.87 35.83-79.87 79.87 35.83 79.87 79.87 79.87 79.87-35.83 79.87-79.87z" fill="#fbce85"/></g></g><g><g id="XMLID_424_"><g><path d="m274.028 178.62c-.078-2.408-1.637-4.517-3.916-5.298l-1.114-.382c-16.03-5.51-33.71-3.34-47.94 5.89l-30.45 19.75c-17.4 11.28-39.67 11.85-57.62 1.47-8.6-4.97-18.12-7.4-27.59-7.4-12.95 0-25.8 4.55-36.07 13.41l-19.99 17.25c-8.66 7.48-22.1 1.33-22.1-10.11v-17.29c12.64-110.27 106.27-195.91 219.92-195.91 113.66 0 207.29 85.64 219.93 195.91 0 13.58-11.14 23.56-23.53 23.56-3.2 0-6.48-.66-9.67-2.1l-10.52-4.75c-17.53-7.89-37.36 4.93-37.36 24.15v68.72c0 10.6-8.59 19.2-19.2 19.2-5.3 0-10.1-2.15-13.58-5.63-3.47-3.47-5.62-8.27-5.62-13.57v-6.29c0-9.39-7.61-17.01-17.01-17-4.69 0-8.93 1.91-12.01 4.99-3.07 3.07-4.97 7.32-4.97 12.01v32.38c0 10.93-8.86 19.79-19.8 19.79-5.47 0-10.41-2.21-13.99-5.8-3.58-3.58-5.8-8.53-5.8-13.99z" fill="#fdaee0"/></g></g></g><g fill="#fd94d3"><path d="m295.468 336.731v-152.96c-.078-2.408-1.637-4.517-3.916-5.298l-1.114-.382c-5.784-1.988-11.763-2.961-17.736-2.979.805.97 1.284 2.189 1.327 3.507v152.96c0 5.46 2.22 10.41 5.8 13.99 3.58 3.59 8.52 5.8 13.99 5.8 2.429 0 4.769-.442 6.919-1.241-3.245-3.523-5.27-8.232-5.27-13.397z"/><path d="m369.048 310.641v-6.29c0-9.39-7.61-17.01-17.01-17-2.772 0-5.363.672-7.674 1.854 2.042 2.806 3.244 6.259 3.244 9.994v6.29c0 5.3 2.15 10.1 5.62 13.57 3.48 3.48 8.28 5.63 13.58 5.63 2.496 0 4.891-.48 7.078-1.346-2.989-3.382-4.838-7.829-4.838-12.702z"/></g><g><path d="m314.222 10.348c-21.155-6.717-43.684-10.348-67.064-10.348-113.65 0-207.28 85.64-219.92 195.91v17.29c0 11.44 13.44 17.59 22.1 10.11l19.99-17.25c10.27-8.86 23.12-13.41 36.07-13.41 6.317 0 12.655 1.088 18.729 3.283 14.906-96.835 92.531-172.965 190.095-185.585z" fill="#fd94d3"/></g><g><path d="m85.836 155.914h-12.365c-4.142 0-7.5-3.357-7.5-7.5s3.358-7.5 7.5-7.5h12.365c4.142 0 7.5 3.357 7.5 7.5s-3.358 7.5-7.5 7.5z" fill="#935c47"/></g><g><path d="m181.914 150.987c-2.547 0-5.03-1.297-6.437-3.639l-6.183-10.292c-2.133-3.551-.984-8.158 2.567-10.291 3.551-2.134 8.159-.984 10.292 2.566l6.183 10.292c2.133 3.551.984 8.158-2.567 10.291-1.209.727-2.54 1.073-3.855 1.073z" fill="#aa6b54"/></g><g><path d="m117.232 125c-2.354 0-4.673-1.106-6.134-3.176-2.389-3.385-1.582-8.064 1.802-10.452l8.086-5.707c3.384-2.388 8.064-1.581 10.452 1.802 2.389 3.385 1.582 8.064-1.802 10.452l-8.086 5.707c-1.314.928-2.823 1.374-4.318 1.374z" fill="#935c47"/></g><g><path d="m165.258 83.147c-1.741 0-3.49-.603-4.909-1.833l-7.134-6.184c-3.13-2.713-3.468-7.449-.755-10.579 2.714-3.13 7.45-3.469 10.58-.755l7.134 6.184c3.13 2.713 3.468 7.449.755 10.579-1.484 1.711-3.572 2.588-5.671 2.588z" fill="#935c47"/></g><g><path d="m239.93 104.075c-3.104 0-6.006-1.941-7.083-5.038-1.361-3.912.708-8.187 4.62-9.548l10.938-3.805c3.912-1.356 8.187.708 9.547 4.62s-.708 8.187-4.62 9.548l-10.938 3.805c-.815.283-1.647.418-2.464.418z" fill="#aa6b54"/></g><g><path d="m214.725 69.354c-2.001 0-3.997-.796-5.473-2.37l-7.134-7.609c-2.833-3.022-2.68-7.769.342-10.602 3.021-2.834 7.768-2.68 10.601.342l7.134 7.609c2.833 3.022 2.68 7.769-.342 10.602-1.447 1.356-3.29 2.028-5.128 2.028z" fill="#aa6b54"/></g><path d="m213.061 49.115c-2.833-3.021-7.58-3.176-10.601-.342-2.959 2.774-3.16 7.379-.506 10.408 3.866-3.197 7.844-6.262 11.925-9.194z" fill="#935c47"/><g><path d="m345.518 163.047c-2.217 0-4.412-.978-5.892-2.853-2.566-3.251-2.012-7.968 1.24-10.534l9.037-7.134c3.25-2.565 7.967-2.012 10.534 1.239s2.012 7.968-1.24 10.534l-9.037 7.134c-1.375 1.087-3.015 1.614-4.642 1.614z" fill="#aa6b54"/></g><g><path d="m303.661 244.56c-4.142 0-7.5-3.357-7.5-7.5v-6.495c0-4.143 3.358-7.5 7.5-7.5s7.5 3.357 7.5 7.5v6.495c0 4.143-3.358 7.5-7.5 7.5z" fill="#aa6b54"/></g><g><path d="m352.644 234.863c-1.698 0-3.405-.573-4.809-1.748l-7.134-5.97c-3.177-2.658-3.597-7.389-.939-10.565s7.389-3.597 10.565-.938l7.134 5.97c3.177 2.658 3.597 7.389.939 10.565-1.484 1.772-3.613 2.686-5.756 2.686z" fill="#aa6b54"/></g><g><path d="m404.018 153.235c-.619 0-1.248-.077-1.875-.238-4.011-1.032-6.426-5.121-5.394-9.133l1.902-7.393c1.032-4.012 5.122-6.428 9.132-5.395 4.011 1.032 6.426 5.121 5.394 9.133l-1.902 7.393c-.87 3.385-3.917 5.633-7.257 5.633z" fill="#aa6b54"/></g><g><path d="m322.681 125.001c-3.27 0-6.277-2.156-7.212-5.458l-2.854-10.073c-1.129-3.985 1.187-8.131 5.172-9.26 3.985-1.126 8.131 1.186 9.26 5.172l2.854 10.073c1.129 3.985-1.187 8.131-5.172 9.26-.683.194-1.371.286-2.048.286z" fill="#aa6b54"/></g><g><path d="m365.012 100.27c-.875 0-1.765-.154-2.633-.479-3.878-1.455-5.843-5.777-4.389-9.656l4.281-11.414c1.455-3.879 5.778-5.843 9.656-4.389 3.878 1.455 5.843 5.777 4.389 9.656l-4.281 11.414c-1.129 3.011-3.987 4.868-7.023 4.868z" fill="#aa6b54"/></g><g><path d="m290.34 65.551c-1.018 0-2.052-.208-3.042-.648l-8.561-3.805c-3.785-1.682-5.49-6.114-3.808-9.899s6.115-5.492 9.899-3.808l8.561 3.805c3.785 1.682 5.49 6.114 3.808 9.899-1.242 2.795-3.983 4.456-6.857 4.456z" fill="#aa6b54"/></g></g></svg>